HIERARCHY
ROOT pelvis
{
  OFFSET 0 100 0
  CHANNELS 6 Xposition Yposition Zposition Zrotation Xrotation Yrotation
  JOINT pelvis_right_femur
  {
    OFFSET -10.78128 -3.44521 -0.5502486
    CHANNELS 3 Zrotation Xrotation Yrotation
    JOINT right_femur_tibia
    {
      OFFSET -0.8047443 -44.0398 -0.1307829
      CHANNELS 3 Zrotation Xrotation Yrotation
      JOINT right_tibia_foot
      {
        OFFSET 3.006224 -47.83518 -5
        CHANNELS 3 Zrotation Xrotation Yrotation
        End Site
        {
          OFFSET 0 -5 15
        }
      }
    }
  }
  JOINT pelvis_left_femur
  {
    OFFSET 10.78128 -3.44521 -0.5502486
    CHANNELS 3 Zrotation Xrotation Yrotation
    JOINT left_femur_tibia
    {
      OFFSET 0.8047443 -44.0398 -0.1307829
      CHANNELS 3 Zrotation Xrotation Yrotation
      JOINT left_tibia_foot
      {
        OFFSET -4.370144 -48.10324 -4.275266
        CHANNELS 3 Zrotation Xrotation Yrotation
        End Site
        {
          OFFSET 0 -5 15
        }
      }
    }
  }
  JOINT pelvis_spine1
  {
    OFFSET 0 6.468898 -3.129235
    CHANNELS 3 Zrotation Xrotation Yrotation
    JOINT spine1
    {
      OFFSET 0 23.15396 4.99043
      CHANNELS 3 Zrotation Xrotation Yrotation
      JOINT spine2
      {
        OFFSET 0 20.79997 -5.064912
        CHANNELS 3 Zrotation Xrotation Yrotation
        JOINT neck
        {
          OFFSET 0 14.38658 9.616178
          CHANNELS 3 Zrotation Xrotation Yrotation
          End Site
          {
            OFFSET 0 20 0
          }
        }
      }
      JOINT right_manubrium
      {
        OFFSET -5.722621 16.35077 3.967754
        CHANNELS 3 Zrotation Xrotation Yrotation
        JOINT right_clavicle
        {
          OFFSET -13.16364 1.694482 -4.693211
          CHANNELS 3 Zrotation Xrotation Yrotation
          JOINT right_humerus
          {
            OFFSET -28.5034 -0.3100689 -2.792744
            CHANNELS 3 Zrotation Xrotation Yrotation
            JOINT right_radius
            {
              OFFSET -25.15693 0.02248979 -1.271978
              CHANNELS 3 Zrotation Xrotation Yrotation
              End Site
              {
                OFFSET -15 0 0
              }
            }
          }
        }
      }
      JOINT left_manubrium
      {
        OFFSET 5.722621 16.35077 3.967754
        CHANNELS 3 Zrotation Xrotation Yrotation
        JOINT left_clavicle
        {
          OFFSET 13.16364 1.694482 -4.693211
          CHANNELS 3 Zrotation Xrotation Yrotation
          JOINT left_humerus
          {
            OFFSET 29.39168 -1.063119 -2.237045
            CHANNELS 3 Zrotation Xrotation Yrotation
            JOINT left_radius
            {
              OFFSET 24.59957 -0.9528479 0.9047498
              CHANNELS 3 Zrotation Xrotation Yrotation
              End Site
              {
                OFFSET 15 -0 -0
              }
            }
          }
        }
      }
    }
  }
}
MOTION
Frames: 7
Frame Time: 0.0416666666667
1007.469 100.3932 3015.469 4.532654 -6.976515 33.70075 5.451265 -9.208841 5.987918 -0 19.13086 -0 -0.7634475 -6.299522 -8.523682 -2.931467 9.344099 -7.058295 -0 53.30292 -0 -9.395309 -8.35731 15.73443 -0.4976428 -1.591696 2.757916 0.504683 11.06307 -6.715537 2.805779 24.09826 4.297713 0.7846798 -19.90116 8.047254 -4.549603 -17.90635 9.340618 97.53555 17.03942 -22.13762 -0 0 4.5171 -19.12649 8.180812 8.611839 4.628418 -25.15948 -6.683193 -83.0703 21.887 8.223404 0 0 -28.66901 6.211454 13.31873 7.947332
1010.679 101.7107 3021.045 5.125418 -7.484888 32.90265 5.234067 -4.164054 5.82398 -0 18.62251 -0 -1.292952 -8.049724 -7.382624 -2.912753 2.33645 -7.024369 -0 57.67309 -0 -8.921267 -7.642258 17.11866 -0.3566337 -1.423585 3.047841 0.5125335 11.52747 -6.561031 2.773614 24.09273 4.156042 0.6830517 -20.29835 7.948941 -4.614603 -18.92604 9.652078 97.0441 16.39485 -20.90922 -0 0 6.092375 -19.76898 8.599114 9.105184 4.319034 -24.34873 -6.654923 -84.75986 22.00911 10.92943 0 0 -25.33876 5.677119 13.63616 8.123078
1013.812 102.7075 3026.306 5.60693 -7.517636 32.10631 4.708605 0.5275097 5.620492 -0 16.558 -0 -0.910038 -9.298193 -6.115191 -2.591289 -5.032167 -6.643433 -0 57.12551 -0 -8.59036 -7.619949 18.04754 -0.2243416 -1.307833 3.412208 0.4781289 11.9694 -6.365201 2.746188 24.02757 3.938811 0.5253418 -20.59156 7.810383 -4.719489 -20.08772 9.916327 96.49475 15.9174 -19.4814 -0 0 7.988974 -20.38189 9.056337 9.710015 3.973405 -23.515 -6.601259 -86.49028 21.96439 13.91163 0 0 -21.99875 5.138469 13.91285 8.38449
1016.938 103.1283 3031.396 5.731739 -7.3353 31.32998 4.327656 4.985735 5.573476 -0 14.21748 -0 -0.02768015 -10.59416 -5.108502 -1.661462 -11.69344 -5.768797 -0 51.91265 -0 -8.464488 -7.751409 18.7785 -0.1050387 -1.272572 3.854148 0.4105022 12.37701 -6.144268 2.724219 23.87654 3.640788 0.3025517 -20.75905 7.624298 -4.860607 -21.3921 10.12199 95.88512 15.54728 -17.90656 -0 0 10.21705 -20.95354 9.551556 10.4361 3.600991 -22.67399 -6.513861 -88.21511 21.77781 17.11129 0 0 -18.80875 4.508734 14.06095 8.871801
1020.108 102.9158 3036.393 5.377742 -7.023103 30.54445 4.200509 9.062418 5.429885 -0 12.5309 -0 0.5576023 -12.39893 -4.202591 -0.3297153 -17.31064 -4.684293 -0 43.81099 -0 -8.315974 -7.845682 19.42572 -0.001181393 -1.324992 4.36037 0.3250151 12.73661 -5.907395 2.702908 23.63596 3.284661 0.02506996 -20.8219 7.401353 -5.030201 -22.8151 10.27043 95.21019 15.22195 -16.23248 -0 0 12.73003 -21.49089 10.07231 11.283 3.224707 -21.82624 -6.383852 -89.91151 21.47967 20.4462 0 0 -15.86959 3.754485 14.03604 9.619067
1023.386 102.192 3041.364 4.613278 -6.426027 29.75316 4.111578 12.49808 5.072032 -0 11.82804 -0 0.7006677 -14.4659 -3.13156 0.9311425 -21.83833 -3.748546 -0 34.97595 -0 -8.009848 -7.832115 19.81952 0.08168089 -1.442318 4.886721 0.2358085 13.01696 -5.660596 2.676967 23.33609 2.92275 -0.2694406 -20.81472 7.171071 -5.206794 -24.24865 10.36334 94.48553 14.921 -14.55105 -0 0 15.34676 -21.98352 10.57293 12.19513 2.886857 -20.98958 -6.210289 -91.51118 21.11682 23.69505 0 0 -13.29649 2.92739 13.84426 10.5331
1026.848 101.1674 3046.409 3.720974 -5.54164 29.00579 3.803341 15.18218 4.629152 -0 12.25575 -0 0.7596662 -15.98282 -1.961039 1.678954 -25.04166 -3.219238 -0 27.17505 -0 -7.548671 -7.736415 19.92556 0.1392886 -1.578957 5.370761 0.1474607 13.18747 -5.414013 2.648588 23.02899 2.610859 -0.5316987 -20.7555 6.966605 -5.356946 -25.51796 10.40067 93.76275 14.65512 -13.01081 -0 0 17.78449 -22.39461 10.99207 13.05951 2.630068 -20.21152 -6.009436 -92.8956 20.76949 26.53278 0 0 -11.22645 2.112169 13.52347 11.48764
